<svg width="20" height="18" viewBox="0 0 20 18" fill="none" xmlns="http://www.w3.org/2000/svg">
<path d="M18 1H2C1.44772 1 1 1.44772 1 2V16C1 16.5523 1.44772 17 2 17H18C18.5523 17 19 16.5523 19 16V2C19 1.44772 18.5523 1 18 1Z" stroke="#4E5D78" stroke-width="2" stroke-linecap="round" stroke-linejoin="round"/>
<path d="M1 14.0002L6.22999 7.89853C6.63274 7.42865 7.36128 7.43371 7.75746 7.90913L11.299 12.1589C11.6754 12.6107 12.3585 12.6417 12.7743 12.2259L14.21 10.7902C14.6314 10.3688 15.3256 10.4072 15.698 10.8726L19 15.0002" stroke="#4E5D78" stroke-width="2" stroke-linecap="round" stroke-linejoin="round"/>
<path d="M12 6C12 5.44772 12.4477 5 13 5C13.5523 5 14 5.44772 14 6C14 6.55228 13.5523 7 13 7C12.4477 7 12 6.55228 12 6Z" stroke="#4E5D78" stroke-width="2" stroke-linecap="round" stroke-linejoin="round"/>
</svg>
