<svg width="24" height="24" viewBox="0 0 24 24" fill="currentColor" xmlns="http://www.w3.org/2000/svg" data-test-id="icon" class="icon_cbe9250 segment-route__path-endpoint-icon" aria-hidden="true"><path fill-rule="evenodd" clip-rule="evenodd" d="M16.954 9.793l-2.719 1.268c-2-.64-4.862-1.236-7.398-2.056l-1.201.55c1.32 1.029 3.135 2.33 4.52 3.408L7.439 14.23c-1.173-.248-2.418-.338-3.349-.532-.506-.106-.816.339-.338.71 2.256 1.759 3.159 2.469 3.159 2.469.392.305.875.497 1.343.283l12.445-5.803c.906-.46.871-1.106.64-1.629-.547-1.173-2.049-1.003-4.384.064z"></path></svg>