<svg width="24" height="24" viewBox="0 0 24 24" fill="currentColor" xmlns="http://www.w3.org/2000/svg" data-test-id="icon" class="icon_cbe9250 segment-route__path-endpoint-icon" aria-hidden="true"><path fill-rule="evenodd" clip-rule="evenodd" d="M16.109 14.02l-2.719-1.268c-.795-1.945-2.178-4.52-3.18-6.99l-1.193-.567c.06 1.674.23 3.9.295 5.655l-2.72-1.268c-.564-1.058-1.295-2.069-1.744-2.907-.245-.456-.785-.408-.762.198.103 2.858.14 4.006.14 4.006.018.497.182.99.646 1.21l12.445 5.804c.935.398 1.407-.043 1.659-.557.547-1.173-.549-2.214-2.867-3.317z"></path></svg>