<svg width="24" height="25" viewBox="0 0 24 25" fill="currentColor"
     xmlns="http://www.w3.org/2000/svg" data-test-id="icon"
     class="icon_cbe9250 icon_1be8203 color-red_1be8203" aria-hidden="true">
    <path clip-rule="evenodd"
          d="M18.499 6.71a.886.886 0 01-.886 1.535l-.767-.443-2.215 3.836-2.463 4.265a3.048 3.048 0 00-4.163 1.116l-1.196-.69 4.872-8.44 2.302 1.329 1.214-2.104a2 2 0 012.732-.732l.57.329zM9.76 20.075a1.769 1.769 0 101.769-3.063 1.769 1.769 0 00-1.769 3.063zm1.147-12.617a2 2 0 00-2.528.835l-2.872 4.975a2 2 0 00.54 2.607l4.86-8.417z"></path>
</svg>