<svg width="24" height="24" viewBox="0 0 24 24" fill="none" xmlns="http://www.w3.org/2000/svg"> <path d="M14 20C14 21.1 13.1 22 12 22C11.4696 22 10.9609 21.7893 10.5858 21.4142C10.2107 21.0391 10 20.5304 10 20H14Z" fill="#A0B0B9"></path> <path d="M18.6354 18H5.36367L6.15243 17.1876C6.69598 16.6277 7 15.8781 7 15.0978V10.758C7 7.91096 8.43312 5.77943 10.737 5.21752L11.5 5.03141V4.246V3.545C11.5 3.21426 11.7499 3 12 3C12.2501 3 12.5 3.21426 12.5 3.545V4.245V5.0295L13.2619 5.21625C15.5576 5.77893 17 7.92209 17 10.757V15.0988C17 15.8791 17.304 16.6287 17.8476 17.1886L18.6354 18Z" stroke="#A0B0B9" stroke-width="2"></path> </svg>