<svg width="78" height="72" viewBox="0 0 78 72" fill="none" xmlns="http://www.w3.org/2000/svg">
<g clip-path="url(#clip0_133_30)">
<path d="M65.6604 62.9695C65.2255 62.9695 64.7905 62.9372 64.3556 62.8563C49.3258 60.1213 32.0247 54.9749 15.6257 48.3721C11.9045 46.867 10.1003 42.6432 11.5985 38.9048C13.0966 35.1664 17.3011 33.3539 21.0223 34.859C36.5353 41.1058 52.8376 45.9608 66.933 48.5339C70.8797 49.246 73.4894 53.0329 72.7806 56.9979C72.1523 60.5097 69.1077 62.9695 65.6604 62.9695Z" fill="#377DFF"/>
<path d="M65.1128 34.4384C64.9356 34.4384 64.7745 34.4384 64.5973 34.4222C40.176 32.7067 20.829 29.9717 5.46099 26.0553C1.57871 25.0682 -0.773205 21.1032 0.225555 17.203C1.20821 13.3028 5.15492 10.9562 9.0372 11.9434C23.5514 15.6494 42.0607 18.2549 65.6122 19.9056C69.6072 20.1808 72.6196 23.6602 72.3457 27.6737C72.0719 31.5092 68.8823 34.4384 65.1128 34.4384Z" fill="#377DFF"/>
<path d="M12.3394 26.6218C10.0036 26.6218 7.86109 26.4924 6.04077 26.1849C2.09406 25.5214 -0.563934 21.7506 0.0965369 17.7857C0.757007 13.8208 4.51041 11.1505 8.45713 11.814C12.2266 12.4613 22.0532 11.992 38.3072 8.78771C50.7756 6.32783 62.8251 3.01023 67.6256 0.696004C71.234 -1.03562 75.5674 0.501803 77.291 4.12689C79.0147 7.75197 77.4844 12.1053 73.8759 13.8369C66.643 17.3164 51.6938 20.9738 41.094 23.0777C33.7483 24.5342 21.5699 26.6218 12.3394 26.6218Z" fill="url(#paint0_linear_133_30)"/>
<path d="M31.2677 71.9999C27.4177 71.9999 24.2281 68.9736 24.0348 65.0734C23.8414 61.06 26.9183 57.6453 30.9294 57.4511C42.9307 56.8684 53.4499 54.1335 62.181 49.3108C65.6927 47.3688 70.0905 48.6635 72.0236 52.1914C73.9567 55.7194 72.668 60.1375 69.1562 62.0795C58.4759 67.9703 45.8464 71.304 31.6221 71.9999C31.4932 71.9999 31.3805 71.9999 31.2677 71.9999Z" fill="url(#paint1_linear_133_30)"/>
<path d="M18.3322 48.9062C14.6271 48.9062 11.4697 46.0741 11.1153 42.2872C10.7448 38.2899 13.6767 34.7296 17.6717 34.3735C37.4697 32.5448 47.2318 28.7093 61.6172 20.7795C65.129 18.8536 69.5267 20.1321 71.4598 23.6601C73.3768 27.1881 72.1042 31.6062 68.5924 33.5482C61.1339 37.6588 54.5775 40.9278 46.8452 43.4848C38.8068 46.1389 29.9629 47.8543 19.0088 48.8739C18.7832 48.89 18.5577 48.9062 18.3322 48.9062Z" fill="url(#paint2_linear_133_30)"/>
</g>
<defs>
<linearGradient id="paint0_linear_133_30" x1="0.0299921" y1="13.1349" x2="77.9325" y2="13.8229" gradientUnits="userSpaceOnUse">
<stop stop-color="#377DFF"/>
<stop offset="1" stop-color="#2EC0EE"/>
</linearGradient>
<linearGradient id="paint1_linear_133_30" x1="24.0475" y1="60.0549" x2="72.8825" y2="60.3601" gradientUnits="userSpaceOnUse">
<stop stop-color="#377DFF"/>
<stop offset="1" stop-color="#2EC0EE"/>
</linearGradient>
<linearGradient id="paint2_linear_133_30" x1="11.1106" y1="34.2117" x2="72.3013" y2="34.6012" gradientUnits="userSpaceOnUse">
<stop stop-color="#377DFF"/>
<stop offset="1" stop-color="#2EC0EE"/>
</linearGradient>
<clipPath id="clip0_133_30">
<rect width="78" height="72" fill="white"/>
</clipPath>
</defs>
</svg>
